<?xml version="1.0" encoding="UTF-8" standalone="no"?>
<!DOCTYPE svg PUBLIC "-//W3C//DTD SVG 1.1//EN"
 "http://www.w3.org/Graphics/SVG/1.1/DTD/svg11.dtd">
<!-- Generated by graphviz version 2.47.0 (20210316.0004)
 -->
<!-- Title: dependencies Pages: 1 -->
<svg width="504pt" height="211pt"
 viewBox="0.00 0.00 504.00 211.00" xmlns="http://www.w3.org/2000/svg" xmlns:xlink="http://www.w3.org/1999/xlink">
<g id="graph0" class="graph" transform="scale(1 1) rotate(0) translate(4 207)">
<title>dependencies</title>
<polygon fill="white" stroke="transparent" points="-4,4 -4,-207 500,-207 500,4 -4,4"/>
<text text-anchor="start" x="227.01" y="-42.4" font-family="sans-serif" font-weight="bold" font-size="14.00">Legend</text>
<polygon fill="#ffffb3" stroke="transparent" points="14,-10 14,-30 34,-30 34,-10 14,-10"/>
<text text-anchor="start" x="37.63" y="-15.4" font-family="sans-serif" font-size="14.00"> &#160;Declarations</text>
<polygon fill="#8dd3c7" stroke="transparent" points="127,-10 127,-30 147,-30 147,-10 127,-10"/>
<text text-anchor="start" x="150.73" y="-15.4" font-family="sans-serif" font-size="14.00"> &#160;Module</text>
<polygon fill="#80b1d3" stroke="transparent" points="213,-10 213,-30 233,-30 233,-10 213,-10"/>
<text text-anchor="start" x="236.78" y="-15.4" font-family="sans-serif" font-size="14.00"> &#160;Bootstrap</text>
<polygon fill="#fdb462" stroke="transparent" points="310,-10 310,-30 330,-30 330,-10 310,-10"/>
<text text-anchor="start" x="333.67" y="-15.4" font-family="sans-serif" font-size="14.00"> &#160;Providers</text>
<polygon fill="#fb8072" stroke="transparent" points="406,-10 406,-30 426,-30 426,-10 406,-10"/>
<text text-anchor="start" x="429.73" y="-15.4" font-family="sans-serif" font-size="14.00"> &#160;Exports</text>
<g id="clust1" class="cluster">
<title>cluster_CoreModule</title>
<polygon fill="none" stroke="black" stroke-dasharray="1,5" points="129,-70 129,-195 367,-195 367,-70 129,-70"/>
</g>
<g id="clust3" class="cluster">
<title>cluster_CoreModule_imports</title>
<polygon fill="none" stroke="black" points="137,-78 137,-130 359,-130 359,-78 137,-78"/>
</g>
<!-- HealthModule -->
<g id="node1" class="node">
<title>HealthModule</title>
<polygon fill="#8dd3c7" stroke="black" points="351.37,-122 348.37,-126 327.37,-126 324.37,-122 254.63,-122 254.63,-86 351.37,-86 351.37,-122"/>
<text text-anchor="middle" x="303" y="-99.8" font-family="Times,serif" font-size="14.00">HealthModule</text>
</g>
<!-- CoreModule -->
<g id="node3" class="node">
<title>CoreModule</title>
<polygon fill="#8dd3c7" stroke="black" points="234.26,-187 231.26,-191 210.26,-191 207.26,-187 147.74,-187 147.74,-151 234.26,-151 234.26,-187"/>
<text text-anchor="middle" x="191" y="-164.8" font-family="Times,serif" font-size="14.00">CoreModule</text>
</g>
<!-- HealthModule&#45;&gt;CoreModule -->
<g id="edge1" class="edge">
<title>HealthModule&#45;&gt;CoreModule</title>
<path fill="none" stroke="black" d="M303,-122.11C303,-141.34 303,-169 303,-169 303,-169 244.3,-169 244.3,-169"/>
<polygon fill="black" stroke="black" points="244.3,-165.5 234.3,-169 244.3,-172.5 244.3,-165.5"/>
</g>
<!-- RedisModule -->
<g id="node2" class="node">
<title>RedisModule</title>
<polygon fill="#8dd3c7" stroke="black" points="236.94,-122 233.94,-126 212.94,-126 209.94,-122 145.06,-122 145.06,-86 236.94,-86 236.94,-122"/>
<text text-anchor="middle" x="191" y="-99.8" font-family="Times,serif" font-size="14.00">RedisModule</text>
</g>
<!-- RedisModule&#45;&gt;CoreModule -->
<g id="edge2" class="edge">
<title>RedisModule&#45;&gt;CoreModule</title>
<path fill="none" stroke="black" d="M205.46,-122.11C205.46,-122.11 205.46,-140.99 205.46,-140.99"/>
<polygon fill="black" stroke="black" points="201.96,-140.99 205.46,-150.99 208.96,-140.99 201.96,-140.99"/>
</g>
<!-- RedisModule&#45;&gt;CoreModule -->
<g id="edge3" class="edge">
<title>RedisModule&#45;&gt;CoreModule</title>
<path fill="none" stroke="black" d="M176.54,-122.11C176.54,-122.11 176.54,-140.99 176.54,-140.99"/>
<polygon fill="black" stroke="black" points="173.04,-140.99 176.54,-150.99 180.04,-140.99 173.04,-140.99"/>
</g>
</g>
</svg>
