<?xml version="1.0" encoding="UTF-8" standalone="no"?>
<!DOCTYPE svg PUBLIC "-//W3C//DTD SVG 1.1//EN"
 "http://www.w3.org/Graphics/SVG/1.1/DTD/svg11.dtd">
<!-- Generated by graphviz version 2.47.0 (20210316.0004)
 -->
<!-- Title: dependencies Pages: 1 -->
<svg width="504pt" height="284pt"
 viewBox="0.00 0.00 504.00 284.00" xmlns="http://www.w3.org/2000/svg" xmlns:xlink="http://www.w3.org/1999/xlink">
<g id="graph0" class="graph" transform="scale(1 1) rotate(0) translate(4 280)">
<title>dependencies</title>
<polygon fill="white" stroke="transparent" points="-4,4 -4,-280 500,-280 500,4 -4,4"/>
<text text-anchor="start" x="227.01" y="-42.4" font-family="sans-serif" font-weight="bold" font-size="14.00">Legend</text>
<polygon fill="#ffffb3" stroke="transparent" points="14,-10 14,-30 34,-30 34,-10 14,-10"/>
<text text-anchor="start" x="37.63" y="-15.4" font-family="sans-serif" font-size="14.00"> &#160;Declarations</text>
<polygon fill="#8dd3c7" stroke="transparent" points="127,-10 127,-30 147,-30 147,-10 127,-10"/>
<text text-anchor="start" x="150.73" y="-15.4" font-family="sans-serif" font-size="14.00"> &#160;Module</text>
<polygon fill="#80b1d3" stroke="transparent" points="213,-10 213,-30 233,-30 233,-10 213,-10"/>
<text text-anchor="start" x="236.78" y="-15.4" font-family="sans-serif" font-size="14.00"> &#160;Bootstrap</text>
<polygon fill="#fdb462" stroke="transparent" points="310,-10 310,-30 330,-30 330,-10 310,-10"/>
<text text-anchor="start" x="333.67" y="-15.4" font-family="sans-serif" font-size="14.00"> &#160;Providers</text>
<polygon fill="#fb8072" stroke="transparent" points="406,-10 406,-30 426,-30 426,-10 406,-10"/>
<text text-anchor="start" x="429.73" y="-15.4" font-family="sans-serif" font-size="14.00"> &#160;Exports</text>
<g id="clust1" class="cluster">
<title>cluster_ThirdPartyModule</title>
<polygon fill="none" stroke="black" stroke-dasharray="1,5" points="109,-70 109,-268 387,-268 387,-70 109,-70"/>
</g>
<g id="clust4" class="cluster">
<title>cluster_ThirdPartyModule_exports</title>
<polygon fill="none" stroke="black" points="145,-208 145,-260 351,-260 351,-208 145,-208"/>
</g>
<g id="clust6" class="cluster">
<title>cluster_ThirdPartyModule_providers</title>
<polygon fill="none" stroke="black" points="117,-78 117,-130 379,-130 379,-78 117,-78"/>
</g>
<!-- PointsService  -->
<g id="node1" class="node">
<title>PointsService </title>
<polygon fill="#fb8072" stroke="black" points="343.49,-252 246.51,-252 246.51,-216 343.49,-216 343.49,-252"/>
<text text-anchor="middle" x="295" y="-229.8" font-family="Times,serif" font-size="14.00">PointsService </text>
</g>
<!-- S3Service  -->
<g id="node2" class="node">
<title>S3Service </title>
<polygon fill="#fb8072" stroke="black" points="229.26,-252 152.74,-252 152.74,-216 229.26,-216 229.26,-252"/>
<text text-anchor="middle" x="191" y="-229.8" font-family="Times,serif" font-size="14.00">S3Service </text>
</g>
<!-- ThirdPartyModule -->
<g id="node3" class="node">
<title>ThirdPartyModule</title>
<polygon fill="#8dd3c7" stroke="black" points="282.2,-187 279.2,-191 258.2,-191 255.2,-187 161.8,-187 161.8,-151 282.2,-151 282.2,-187"/>
<text text-anchor="middle" x="222" y="-164.8" font-family="Times,serif" font-size="14.00">ThirdPartyModule</text>
</g>
<!-- ThirdPartyModule&#45;&gt;PointsService  -->
<g id="edge1" class="edge">
<title>ThirdPartyModule&#45;&gt;PointsService </title>
<path fill="none" stroke="black" stroke-dasharray="5,2" d="M264.43,-187.11C264.43,-187.11 264.43,-205.99 264.43,-205.99"/>
<polygon fill="black" stroke="black" points="260.93,-205.99 264.43,-215.99 267.93,-205.99 260.93,-205.99"/>
</g>
<!-- ThirdPartyModule&#45;&gt;S3Service  -->
<g id="edge2" class="edge">
<title>ThirdPartyModule&#45;&gt;S3Service </title>
<path fill="none" stroke="black" stroke-dasharray="5,2" d="M195.51,-187.11C195.51,-187.11 195.51,-205.99 195.51,-205.99"/>
<polygon fill="black" stroke="black" points="192.01,-205.99 195.51,-215.99 199.01,-205.99 192.01,-205.99"/>
</g>
<!-- PointsService -->
<g id="node4" class="node">
<title>PointsService</title>
<ellipse fill="#fdb462" stroke="black" cx="307" cy="-104" rx="64.28" ry="18"/>
<text text-anchor="middle" x="307" y="-99.8" font-family="Times,serif" font-size="14.00">PointsService</text>
</g>
<!-- PointsService&#45;&gt;ThirdPartyModule -->
<g id="edge3" class="edge">
<title>PointsService&#45;&gt;ThirdPartyModule</title>
<path fill="none" stroke="black" d="M262.48,-117.15C262.48,-117.15 262.48,-140.69 262.48,-140.69"/>
<polygon fill="black" stroke="black" points="258.98,-140.69 262.48,-150.69 265.98,-140.69 258.98,-140.69"/>
</g>
<!-- S3Service -->
<g id="node5" class="node">
<title>S3Service</title>
<ellipse fill="#fdb462" stroke="black" cx="175" cy="-104" rx="50.38" ry="18"/>
<text text-anchor="middle" x="175" y="-99.8" font-family="Times,serif" font-size="14.00">S3Service</text>
</g>
<!-- S3Service&#45;&gt;ThirdPartyModule -->
<g id="edge4" class="edge">
<title>S3Service&#45;&gt;ThirdPartyModule</title>
<path fill="none" stroke="black" d="M193.54,-120.74C193.54,-120.74 193.54,-140.72 193.54,-140.72"/>
<polygon fill="black" stroke="black" points="190.04,-140.72 193.54,-150.72 197.04,-140.72 190.04,-140.72"/>
</g>
</g>
</svg>
