<?xml version="1.0" encoding="UTF-8" standalone="no"?>
<!DOCTYPE svg PUBLIC "-//W3C//DTD SVG 1.1//EN"
 "http://www.w3.org/Graphics/SVG/1.1/DTD/svg11.dtd">
<!-- Generated by graphviz version 2.47.0 (20210316.0004)
 -->
<!-- Title: dependencies Pages: 1 -->
<svg width="696pt" height="211pt"
 viewBox="0.00 0.00 696.00 211.00" xmlns="http://www.w3.org/2000/svg" xmlns:xlink="http://www.w3.org/1999/xlink">
<g id="graph0" class="graph" transform="scale(1 1) rotate(0) translate(4 207)">
<title>dependencies</title>
<polygon fill="white" stroke="transparent" points="-4,4 -4,-207 692,-207 692,4 -4,4"/>
<text text-anchor="start" x="323.01" y="-42.4" font-family="sans-serif" font-weight="bold" font-size="14.00">Legend</text>
<polygon fill="#ffffb3" stroke="transparent" points="110,-10 110,-30 130,-30 130,-10 110,-10"/>
<text text-anchor="start" x="133.63" y="-15.4" font-family="sans-serif" font-size="14.00"> &#160;Declarations</text>
<polygon fill="#8dd3c7" stroke="transparent" points="223,-10 223,-30 243,-30 243,-10 223,-10"/>
<text text-anchor="start" x="246.73" y="-15.4" font-family="sans-serif" font-size="14.00"> &#160;Module</text>
<polygon fill="#80b1d3" stroke="transparent" points="309,-10 309,-30 329,-30 329,-10 309,-10"/>
<text text-anchor="start" x="332.78" y="-15.4" font-family="sans-serif" font-size="14.00"> &#160;Bootstrap</text>
<polygon fill="#fdb462" stroke="transparent" points="406,-10 406,-30 426,-30 426,-10 406,-10"/>
<text text-anchor="start" x="429.67" y="-15.4" font-family="sans-serif" font-size="14.00"> &#160;Providers</text>
<polygon fill="#fb8072" stroke="transparent" points="502,-10 502,-30 522,-30 522,-10 502,-10"/>
<text text-anchor="start" x="525.73" y="-15.4" font-family="sans-serif" font-size="14.00"> &#160;Exports</text>
<g id="clust1" class="cluster">
<title>cluster_AppModule</title>
<polygon fill="none" stroke="black" stroke-dasharray="1,5" points="8,-70 8,-195 680,-195 680,-70 8,-70"/>
</g>
<g id="clust3" class="cluster">
<title>cluster_AppModule_imports</title>
<polygon fill="none" stroke="black" points="16,-78 16,-130 672,-130 672,-78 16,-78"/>
</g>
<!-- AuthModule -->
<g id="node1" class="node">
<title>AuthModule</title>
<polygon fill="#8dd3c7" stroke="black" points="663.55,-122 660.55,-126 639.55,-126 636.55,-122 576.45,-122 576.45,-86 663.55,-86 663.55,-122"/>
<text text-anchor="middle" x="620" y="-99.8" font-family="Times,serif" font-size="14.00">AuthModule</text>
</g>
<!-- AppModule -->
<g id="node7" class="node">
<title>AppModule</title>
<polygon fill="#8dd3c7" stroke="black" points="390.66,-187 387.66,-191 366.66,-191 363.66,-187 307.34,-187 307.34,-151 390.66,-151 390.66,-187"/>
<text text-anchor="middle" x="349" y="-164.8" font-family="Times,serif" font-size="14.00">AppModule</text>
</g>
<!-- AuthModule&#45;&gt;AppModule -->
<g id="edge1" class="edge">
<title>AuthModule&#45;&gt;AppModule</title>
<path fill="none" stroke="black" d="M620,-122.28C620,-143.32 620,-175 620,-175 620,-175 400.75,-175 400.75,-175"/>
<polygon fill="black" stroke="black" points="400.75,-171.5 390.75,-175 400.75,-178.5 400.75,-171.5"/>
</g>
<!-- CoreModule -->
<g id="node2" class="node">
<title>CoreModule</title>
<polygon fill="#8dd3c7" stroke="black" points="558.26,-122 555.26,-126 534.26,-126 531.26,-122 471.74,-122 471.74,-86 558.26,-86 558.26,-122"/>
<text text-anchor="middle" x="515" y="-99.8" font-family="Times,serif" font-size="14.00">CoreModule</text>
</g>
<!-- CoreModule&#45;&gt;AppModule -->
<g id="edge2" class="edge">
<title>CoreModule&#45;&gt;AppModule</title>
<path fill="none" stroke="black" d="M515,-122.02C515,-139.37 515,-163 515,-163 515,-163 400.89,-163 400.89,-163"/>
<polygon fill="black" stroke="black" points="400.89,-159.5 390.89,-163 400.89,-166.5 400.89,-159.5"/>
</g>
<!-- GameModule -->
<g id="node3" class="node">
<title>GameModule</title>
<polygon fill="#8dd3c7" stroke="black" points="453.48,-122 450.48,-126 429.48,-126 426.48,-122 360.52,-122 360.52,-86 453.48,-86 453.48,-122"/>
<text text-anchor="middle" x="407" y="-99.8" font-family="Times,serif" font-size="14.00">GameModule</text>
</g>
<!-- GameModule&#45;&gt;AppModule -->
<g id="edge3" class="edge">
<title>GameModule&#45;&gt;AppModule</title>
<path fill="none" stroke="black" d="M375.67,-122.11C375.67,-122.11 375.67,-140.99 375.67,-140.99"/>
<polygon fill="black" stroke="black" points="372.17,-140.99 375.67,-150.99 379.17,-140.99 372.17,-140.99"/>
</g>
<!-- LotteryModule -->
<g id="node4" class="node">
<title>LotteryModule</title>
<polygon fill="#8dd3c7" stroke="black" points="342.26,-122 339.26,-126 318.26,-126 315.26,-122 241.74,-122 241.74,-86 342.26,-86 342.26,-122"/>
<text text-anchor="middle" x="292" y="-99.8" font-family="Times,serif" font-size="14.00">LotteryModule</text>
</g>
<!-- LotteryModule&#45;&gt;AppModule -->
<g id="edge4" class="edge">
<title>LotteryModule&#45;&gt;AppModule</title>
<path fill="none" stroke="black" d="M324.78,-122.11C324.78,-122.11 324.78,-140.99 324.78,-140.99"/>
<polygon fill="black" stroke="black" points="321.28,-140.99 324.78,-150.99 328.28,-140.99 321.28,-140.99"/>
</g>
<!-- PlayerModule -->
<g id="node5" class="node">
<title>PlayerModule</title>
<polygon fill="#8dd3c7" stroke="black" points="223.81,-122 220.81,-126 199.81,-126 196.81,-122 128.19,-122 128.19,-86 223.81,-86 223.81,-122"/>
<text text-anchor="middle" x="176" y="-99.8" font-family="Times,serif" font-size="14.00">PlayerModule</text>
</g>
<!-- PlayerModule&#45;&gt;AppModule -->
<g id="edge5" class="edge">
<title>PlayerModule&#45;&gt;AppModule</title>
<path fill="none" stroke="black" d="M176,-122.02C176,-139.37 176,-163 176,-163 176,-163 297.12,-163 297.12,-163"/>
<polygon fill="black" stroke="black" points="297.12,-166.5 307.12,-163 297.12,-159.5 297.12,-166.5"/>
</g>
<!-- QuizModule -->
<g id="node6" class="node">
<title>QuizModule</title>
<polygon fill="#8dd3c7" stroke="black" points="110.26,-122 107.26,-126 86.26,-126 83.26,-122 23.74,-122 23.74,-86 110.26,-86 110.26,-122"/>
<text text-anchor="middle" x="67" y="-99.8" font-family="Times,serif" font-size="14.00">QuizModule</text>
</g>
<!-- QuizModule&#45;&gt;AppModule -->
<g id="edge6" class="edge">
<title>QuizModule&#45;&gt;AppModule</title>
<path fill="none" stroke="black" d="M67,-122.28C67,-143.32 67,-175 67,-175 67,-175 297.09,-175 297.09,-175"/>
<polygon fill="black" stroke="black" points="297.09,-178.5 307.09,-175 297.09,-171.5 297.09,-178.5"/>
</g>
</g>
</svg>
