<?xml version="1.0" encoding="UTF-8" standalone="no"?>
<!DOCTYPE svg PUBLIC "-//W3C//DTD SVG 1.1//EN"
 "http://www.w3.org/Graphics/SVG/1.1/DTD/svg11.dtd">
<!-- Generated by graphviz version 2.47.0 (20210316.0004)
 -->
<!-- Title: dependencies Pages: 1 -->
<svg width="834pt" height="211pt"
 viewBox="0.00 0.00 834.00 211.00" xmlns="http://www.w3.org/2000/svg" xmlns:xlink="http://www.w3.org/1999/xlink">
<g id="graph0" class="graph" transform="scale(1 1) rotate(0) translate(4 207)">
<title>dependencies</title>
<polygon fill="white" stroke="transparent" points="-4,4 -4,-207 830,-207 830,4 -4,4"/>
<text text-anchor="start" x="392.01" y="-42.4" font-family="sans-serif" font-weight="bold" font-size="14.00">Legend</text>
<polygon fill="#ffffb3" stroke="transparent" points="179,-10 179,-30 199,-30 199,-10 179,-10"/>
<text text-anchor="start" x="202.63" y="-15.4" font-family="sans-serif" font-size="14.00"> &#160;Declarations</text>
<polygon fill="#8dd3c7" stroke="transparent" points="292,-10 292,-30 312,-30 312,-10 292,-10"/>
<text text-anchor="start" x="315.73" y="-15.4" font-family="sans-serif" font-size="14.00"> &#160;Module</text>
<polygon fill="#80b1d3" stroke="transparent" points="378,-10 378,-30 398,-30 398,-10 378,-10"/>
<text text-anchor="start" x="401.78" y="-15.4" font-family="sans-serif" font-size="14.00"> &#160;Bootstrap</text>
<polygon fill="#fdb462" stroke="transparent" points="475,-10 475,-30 495,-30 495,-10 475,-10"/>
<text text-anchor="start" x="498.67" y="-15.4" font-family="sans-serif" font-size="14.00"> &#160;Providers</text>
<polygon fill="#fb8072" stroke="transparent" points="571,-10 571,-30 591,-30 591,-10 571,-10"/>
<text text-anchor="start" x="594.73" y="-15.4" font-family="sans-serif" font-size="14.00"> &#160;Exports</text>
<g id="clust1" class="cluster">
<title>cluster_AppModule</title>
<polygon fill="none" stroke="black" stroke-dasharray="1,5" points="8,-70 8,-195 818,-195 818,-70 8,-70"/>
</g>
<g id="clust3" class="cluster">
<title>cluster_AppModule_imports</title>
<polygon fill="none" stroke="black" points="16,-78 16,-130 810,-130 810,-78 16,-78"/>
</g>
<!-- AuthModule -->
<g id="node1" class="node">
<title>AuthModule</title>
<polygon fill="#8dd3c7" stroke="black" points="801.55,-122 798.55,-126 777.55,-126 774.55,-122 714.45,-122 714.45,-86 801.55,-86 801.55,-122"/>
<text text-anchor="middle" x="758" y="-99.8" font-family="Times,serif" font-size="14.00">AuthModule</text>
</g>
<!-- AppModule -->
<g id="node8" class="node">
<title>AppModule</title>
<polygon fill="#8dd3c7" stroke="black" points="451.66,-187 448.66,-191 427.66,-191 424.66,-187 368.34,-187 368.34,-151 451.66,-151 451.66,-187"/>
<text text-anchor="middle" x="410" y="-164.8" font-family="Times,serif" font-size="14.00">AppModule</text>
</g>
<!-- AuthModule&#45;&gt;AppModule -->
<g id="edge1" class="edge">
<title>AuthModule&#45;&gt;AppModule</title>
<path fill="none" stroke="black" d="M758,-122.29C758,-144.21 758,-178 758,-178 758,-178 461.98,-178 461.98,-178"/>
<polygon fill="black" stroke="black" points="461.98,-174.5 451.98,-178 461.98,-181.5 461.98,-174.5"/>
</g>
<!-- CampaignModule -->
<g id="node2" class="node">
<title>CampaignModule</title>
<polygon fill="#8dd3c7" stroke="black" points="696.6,-122 693.6,-126 672.6,-126 669.6,-122 579.4,-122 579.4,-86 696.6,-86 696.6,-122"/>
<text text-anchor="middle" x="638" y="-99.8" font-family="Times,serif" font-size="14.00">CampaignModule</text>
</g>
<!-- CampaignModule&#45;&gt;AppModule -->
<g id="edge2" class="edge">
<title>CampaignModule&#45;&gt;AppModule</title>
<path fill="none" stroke="black" d="M638,-122.11C638,-141.34 638,-169 638,-169 638,-169 461.82,-169 461.82,-169"/>
<polygon fill="black" stroke="black" points="461.82,-165.5 451.82,-169 461.82,-172.5 461.82,-165.5"/>
</g>
<!-- CoreModule -->
<g id="node3" class="node">
<title>CoreModule</title>
<polygon fill="#8dd3c7" stroke="black" points="561.26,-122 558.26,-126 537.26,-126 534.26,-122 474.74,-122 474.74,-86 561.26,-86 561.26,-122"/>
<text text-anchor="middle" x="518" y="-99.8" font-family="Times,serif" font-size="14.00">CoreModule</text>
</g>
<!-- CoreModule&#45;&gt;AppModule -->
<g id="edge3" class="edge">
<title>CoreModule&#45;&gt;AppModule</title>
<path fill="none" stroke="black" d="M518,-122.03C518,-138.4 518,-160 518,-160 518,-160 461.76,-160 461.76,-160"/>
<polygon fill="black" stroke="black" points="461.76,-156.5 451.76,-160 461.76,-163.5 461.76,-156.5"/>
</g>
<!-- GameModule -->
<g id="node4" class="node">
<title>GameModule</title>
<polygon fill="#8dd3c7" stroke="black" points="456.48,-122 453.48,-126 432.48,-126 429.48,-122 363.52,-122 363.52,-86 456.48,-86 456.48,-122"/>
<text text-anchor="middle" x="410" y="-99.8" font-family="Times,serif" font-size="14.00">GameModule</text>
</g>
<!-- GameModule&#45;&gt;AppModule -->
<g id="edge4" class="edge">
<title>GameModule&#45;&gt;AppModule</title>
<path fill="none" stroke="black" d="M410,-122.11C410,-122.11 410,-140.99 410,-140.99"/>
<polygon fill="black" stroke="black" points="406.5,-140.99 410,-150.99 413.5,-140.99 406.5,-140.99"/>
</g>
<!-- PlayerModule -->
<g id="node5" class="node">
<title>PlayerModule</title>
<polygon fill="#8dd3c7" stroke="black" points="345.81,-122 342.81,-126 321.81,-126 318.81,-122 250.19,-122 250.19,-86 345.81,-86 345.81,-122"/>
<text text-anchor="middle" x="298" y="-99.8" font-family="Times,serif" font-size="14.00">PlayerModule</text>
</g>
<!-- PlayerModule&#45;&gt;AppModule -->
<g id="edge5" class="edge">
<title>PlayerModule&#45;&gt;AppModule</title>
<path fill="none" stroke="black" d="M298,-122.03C298,-138.4 298,-160 298,-160 298,-160 358.3,-160 358.3,-160"/>
<polygon fill="black" stroke="black" points="358.3,-163.5 368.3,-160 358.3,-156.5 358.3,-163.5"/>
</g>
<!-- QuizModule -->
<g id="node6" class="node">
<title>QuizModule</title>
<polygon fill="#8dd3c7" stroke="black" points="232.26,-122 229.26,-126 208.26,-126 205.26,-122 145.74,-122 145.74,-86 232.26,-86 232.26,-122"/>
<text text-anchor="middle" x="189" y="-99.8" font-family="Times,serif" font-size="14.00">QuizModule</text>
</g>
<!-- QuizModule&#45;&gt;AppModule -->
<g id="edge6" class="edge">
<title>QuizModule&#45;&gt;AppModule</title>
<path fill="none" stroke="black" d="M189,-122.11C189,-141.34 189,-169 189,-169 189,-169 358.17,-169 358.17,-169"/>
<polygon fill="black" stroke="black" points="358.17,-172.5 368.17,-169 358.17,-165.5 358.17,-172.5"/>
</g>
<!-- RewardModule -->
<g id="node7" class="node">
<title>RewardModule</title>
<polygon fill="#8dd3c7" stroke="black" points="127.58,-122 124.58,-126 103.58,-126 100.58,-122 24.42,-122 24.42,-86 127.58,-86 127.58,-122"/>
<text text-anchor="middle" x="76" y="-99.8" font-family="Times,serif" font-size="14.00">RewardModule</text>
</g>
<!-- RewardModule&#45;&gt;AppModule -->
<g id="edge7" class="edge">
<title>RewardModule&#45;&gt;AppModule</title>
<path fill="none" stroke="black" d="M76,-122.29C76,-144.21 76,-178 76,-178 76,-178 358.04,-178 358.04,-178"/>
<polygon fill="black" stroke="black" points="358.04,-181.5 368.04,-178 358.04,-174.5 358.04,-181.5"/>
</g>
</g>
</svg>
