<?xml version="1.0" encoding="UTF-8" standalone="no"?>
<!DOCTYPE svg PUBLIC "-//W3C//DTD SVG 1.1//EN"
 "http://www.w3.org/Graphics/SVG/1.1/DTD/svg11.dtd">
<!-- Generated by graphviz version 2.47.0 (20210316.0004)
 -->
<!-- Title: dependencies Pages: 1 -->
<svg width="504pt" height="211pt"
 viewBox="0.00 0.00 504.00 211.00" xmlns="http://www.w3.org/2000/svg" xmlns:xlink="http://www.w3.org/1999/xlink">
<g id="graph0" class="graph" transform="scale(1 1) rotate(0) translate(4 207)">
<title>dependencies</title>
<polygon fill="white" stroke="transparent" points="-4,4 -4,-207 500,-207 500,4 -4,4"/>
<text text-anchor="start" x="227.01" y="-42.4" font-family="sans-serif" font-weight="bold" font-size="14.00">Legend</text>
<polygon fill="#ffffb3" stroke="transparent" points="14,-10 14,-30 34,-30 34,-10 14,-10"/>
<text text-anchor="start" x="37.63" y="-15.4" font-family="sans-serif" font-size="14.00"> &#160;Declarations</text>
<polygon fill="#8dd3c7" stroke="transparent" points="127,-10 127,-30 147,-30 147,-10 127,-10"/>
<text text-anchor="start" x="150.73" y="-15.4" font-family="sans-serif" font-size="14.00"> &#160;Module</text>
<polygon fill="#80b1d3" stroke="transparent" points="213,-10 213,-30 233,-30 233,-10 213,-10"/>
<text text-anchor="start" x="236.78" y="-15.4" font-family="sans-serif" font-size="14.00"> &#160;Bootstrap</text>
<polygon fill="#fdb462" stroke="transparent" points="310,-10 310,-30 330,-30 330,-10 310,-10"/>
<text text-anchor="start" x="333.67" y="-15.4" font-family="sans-serif" font-size="14.00"> &#160;Providers</text>
<polygon fill="#fb8072" stroke="transparent" points="406,-10 406,-30 426,-30 426,-10 406,-10"/>
<text text-anchor="start" x="429.73" y="-15.4" font-family="sans-serif" font-size="14.00"> &#160;Exports</text>
<g id="clust1" class="cluster">
<title>cluster_AppModule</title>
<polygon fill="none" stroke="black" stroke-dasharray="1,5" points="20.5,-70 20.5,-195 475.5,-195 475.5,-70 20.5,-70"/>
</g>
<g id="clust3" class="cluster">
<title>cluster_AppModule_imports</title>
<polygon fill="none" stroke="black" points="28.5,-78 28.5,-130 467.5,-130 467.5,-78 28.5,-78"/>
</g>
<!-- AuthModule -->
<g id="node1" class="node">
<title>AuthModule</title>
<polygon fill="#8dd3c7" stroke="black" points="459.05,-122 456.05,-126 435.05,-126 432.05,-122 371.95,-122 371.95,-86 459.05,-86 459.05,-122"/>
<text text-anchor="middle" x="415.5" y="-99.8" font-family="Times,serif" font-size="14.00">AuthModule</text>
</g>
<!-- AppModule -->
<g id="node5" class="node">
<title>AppModule</title>
<polygon fill="#8dd3c7" stroke="black" points="292.16,-187 289.16,-191 268.16,-191 265.16,-187 208.84,-187 208.84,-151 292.16,-151 292.16,-187"/>
<text text-anchor="middle" x="250.5" y="-164.8" font-family="Times,serif" font-size="14.00">AppModule</text>
</g>
<!-- AuthModule&#45;&gt;AppModule -->
<g id="edge1" class="edge">
<title>AuthModule&#45;&gt;AppModule</title>
<path fill="none" stroke="black" d="M415.5,-122.11C415.5,-141.34 415.5,-169 415.5,-169 415.5,-169 302.56,-169 302.56,-169"/>
<polygon fill="black" stroke="black" points="302.56,-165.5 292.56,-169 302.56,-172.5 302.56,-165.5"/>
</g>
<!-- GameModule -->
<g id="node2" class="node">
<title>GameModule</title>
<polygon fill="#8dd3c7" stroke="black" points="353.98,-122 350.98,-126 329.98,-126 326.98,-122 261.02,-122 261.02,-86 353.98,-86 353.98,-122"/>
<text text-anchor="middle" x="307.5" y="-99.8" font-family="Times,serif" font-size="14.00">GameModule</text>
</g>
<!-- GameModule&#45;&gt;AppModule -->
<g id="edge2" class="edge">
<title>GameModule&#45;&gt;AppModule</title>
<path fill="none" stroke="black" d="M276.67,-122.11C276.67,-122.11 276.67,-140.99 276.67,-140.99"/>
<polygon fill="black" stroke="black" points="273.17,-140.99 276.67,-150.99 280.17,-140.99 273.17,-140.99"/>
</g>
<!-- HealthModule -->
<g id="node3" class="node">
<title>HealthModule</title>
<polygon fill="#8dd3c7" stroke="black" points="242.87,-122 239.87,-126 218.87,-126 215.87,-122 146.13,-122 146.13,-86 242.87,-86 242.87,-122"/>
<text text-anchor="middle" x="194.5" y="-99.8" font-family="Times,serif" font-size="14.00">HealthModule</text>
</g>
<!-- HealthModule&#45;&gt;AppModule -->
<g id="edge3" class="edge">
<title>HealthModule&#45;&gt;AppModule</title>
<path fill="none" stroke="black" d="M225.8,-122.11C225.8,-122.11 225.8,-140.99 225.8,-140.99"/>
<polygon fill="black" stroke="black" points="222.3,-140.99 225.8,-150.99 229.3,-140.99 222.3,-140.99"/>
</g>
<!-- RedisModule -->
<g id="node4" class="node">
<title>RedisModule</title>
<polygon fill="#8dd3c7" stroke="black" points="128.44,-122 125.44,-126 104.44,-126 101.44,-122 36.56,-122 36.56,-86 128.44,-86 128.44,-122"/>
<text text-anchor="middle" x="82.5" y="-99.8" font-family="Times,serif" font-size="14.00">RedisModule</text>
</g>
<!-- RedisModule&#45;&gt;AppModule -->
<g id="edge4" class="edge">
<title>RedisModule&#45;&gt;AppModule</title>
<path fill="none" stroke="black" d="M82.5,-122.11C82.5,-141.34 82.5,-169 82.5,-169 82.5,-169 198.54,-169 198.54,-169"/>
<polygon fill="black" stroke="black" points="198.54,-172.5 208.54,-169 198.54,-165.5 198.54,-172.5"/>
</g>
</g>
</svg>
