<?xml version="1.0" encoding="UTF-8" standalone="no"?>
<!DOCTYPE svg PUBLIC "-//W3C//DTD SVG 1.1//EN"
 "http://www.w3.org/Graphics/SVG/1.1/DTD/svg11.dtd">
<!-- Generated by graphviz version 2.47.0 (20210316.0004)
 -->
<!-- Title: dependencies Pages: 1 -->
<svg width="1108pt" height="295pt"
 viewBox="0.00 0.00 1108.00 295.00" xmlns="http://www.w3.org/2000/svg" xmlns:xlink="http://www.w3.org/1999/xlink">
<g id="graph0" class="graph" transform="scale(1 1) rotate(0) translate(4 291)">
<title>dependencies</title>
<polygon fill="white" stroke="transparent" points="-4,4 -4,-291 1104,-291 1104,4 -4,4"/>
<text text-anchor="start" x="529.01" y="-42.4" font-family="sans-serif" font-weight="bold" font-size="14.00">Legend</text>
<polygon fill="#ffffb3" stroke="transparent" points="316,-10 316,-30 336,-30 336,-10 316,-10"/>
<text text-anchor="start" x="339.63" y="-15.4" font-family="sans-serif" font-size="14.00"> &#160;Declarations</text>
<polygon fill="#8dd3c7" stroke="transparent" points="429,-10 429,-30 449,-30 449,-10 429,-10"/>
<text text-anchor="start" x="452.73" y="-15.4" font-family="sans-serif" font-size="14.00"> &#160;Module</text>
<polygon fill="#80b1d3" stroke="transparent" points="515,-10 515,-30 535,-30 535,-10 515,-10"/>
<text text-anchor="start" x="538.78" y="-15.4" font-family="sans-serif" font-size="14.00"> &#160;Bootstrap</text>
<polygon fill="#fdb462" stroke="transparent" points="612,-10 612,-30 632,-30 632,-10 612,-10"/>
<text text-anchor="start" x="635.67" y="-15.4" font-family="sans-serif" font-size="14.00"> &#160;Providers</text>
<polygon fill="#fb8072" stroke="transparent" points="708,-10 708,-30 728,-30 728,-10 708,-10"/>
<text text-anchor="start" x="731.73" y="-15.4" font-family="sans-serif" font-size="14.00"> &#160;Exports</text>
<g id="clust1" class="cluster">
<title>cluster_AppModule</title>
<polygon fill="none" stroke="black" stroke-dasharray="1,5" points="52,-146 52,-271 506,-271 506,-146 52,-146"/>
</g>
<g id="clust3" class="cluster">
<title>cluster_AppModule_imports</title>
<polygon fill="none" stroke="black" points="60,-154 60,-206 498,-206 498,-154 60,-154"/>
</g>
<g id="clust7" class="cluster">
<title>cluster_AuthModule</title>
<polygon fill="none" stroke="black" stroke-dasharray="1,5" points="8,-70 8,-138 486,-138 486,-70 8,-70"/>
</g>
<g id="clust12" class="cluster">
<title>cluster_AuthModule_providers</title>
<polygon fill="none" stroke="black" points="16,-78 16,-130 478,-130 478,-78 16,-78"/>
</g>
<g id="clust13" class="cluster">
<title>cluster_GameModule</title>
<polygon fill="none" stroke="black" stroke-dasharray="1,5" points="494,-70 494,-138 652,-138 652,-70 494,-70"/>
</g>
<g id="clust18" class="cluster">
<title>cluster_GameModule_providers</title>
<polygon fill="none" stroke="black" points="502,-78 502,-130 644,-130 644,-78 502,-78"/>
</g>
<g id="clust43" class="cluster">
<title>cluster_SVCAppModule</title>
<polygon fill="none" stroke="black" stroke-dasharray="1,5" points="660,-70 660,-206 806,-206 806,-70 660,-70"/>
</g>
<g id="clust45" class="cluster">
<title>cluster_SVCAppModule_imports</title>
<polygon fill="none" stroke="black" points="668,-78 668,-130 798,-130 798,-78 668,-78"/>
</g>
<g id="clust49" class="cluster">
<title>cluster_ThirdPartyModule</title>
<polygon fill="none" stroke="black" stroke-dasharray="1,5" points="814,-70 814,-279 1092,-279 1092,-70 814,-70"/>
</g>
<g id="clust52" class="cluster">
<title>cluster_ThirdPartyModule_exports</title>
<polygon fill="none" stroke="black" points="850,-219 850,-271 1056,-271 1056,-219 850,-219"/>
</g>
<g id="clust54" class="cluster">
<title>cluster_ThirdPartyModule_providers</title>
<polygon fill="none" stroke="black" points="822,-78 822,-130 1084,-130 1084,-78 822,-78"/>
</g>
<!-- AuthModule -->
<g id="node1" class="node">
<title>AuthModule</title>
<polygon fill="#8dd3c7" stroke="black" points="379.55,-198 376.55,-202 355.55,-202 352.55,-198 292.45,-198 292.45,-162 379.55,-162 379.55,-198"/>
<text text-anchor="middle" x="336" y="-175.8" font-family="Times,serif" font-size="14.00">AuthModule</text>
</g>
<!-- AppModule -->
<g id="node5" class="node">
<title>AppModule</title>
<polygon fill="#8dd3c7" stroke="black" points="322.66,-263 319.66,-267 298.66,-267 295.66,-263 239.34,-263 239.34,-227 322.66,-227 322.66,-263"/>
<text text-anchor="middle" x="281" y="-240.8" font-family="Times,serif" font-size="14.00">AppModule</text>
</g>
<!-- AuthModule&#45;&gt;AppModule -->
<g id="edge1" class="edge">
<title>AuthModule&#45;&gt;AppModule</title>
<path fill="none" stroke="black" d="M307.53,-198.11C307.53,-198.11 307.53,-216.99 307.53,-216.99"/>
<polygon fill="black" stroke="black" points="304.03,-216.99 307.53,-226.99 311.03,-216.99 304.03,-216.99"/>
</g>
<!-- GameModule -->
<g id="node2" class="node">
<title>GameModule</title>
<polygon fill="#8dd3c7" stroke="black" points="490.48,-198 487.48,-202 466.48,-202 463.48,-198 397.52,-198 397.52,-162 490.48,-162 490.48,-198"/>
<text text-anchor="middle" x="444" y="-175.8" font-family="Times,serif" font-size="14.00">GameModule</text>
</g>
<!-- GameModule&#45;&gt;AppModule -->
<g id="edge2" class="edge">
<title>GameModule&#45;&gt;AppModule</title>
<path fill="none" stroke="black" d="M444,-198.11C444,-217.34 444,-245 444,-245 444,-245 332.98,-245 332.98,-245"/>
<polygon fill="black" stroke="black" points="332.98,-241.5 322.98,-245 332.98,-248.5 332.98,-241.5"/>
</g>
<!-- HealthModule -->
<g id="node3" class="node">
<title>HealthModule</title>
<polygon fill="#8dd3c7" stroke="black" points="274.37,-198 271.37,-202 250.37,-202 247.37,-198 177.63,-198 177.63,-162 274.37,-162 274.37,-198"/>
<text text-anchor="middle" x="226" y="-175.8" font-family="Times,serif" font-size="14.00">HealthModule</text>
</g>
<!-- HealthModule&#45;&gt;AppModule -->
<g id="edge3" class="edge">
<title>HealthModule&#45;&gt;AppModule</title>
<path fill="none" stroke="black" d="M256.8,-198.11C256.8,-198.11 256.8,-216.99 256.8,-216.99"/>
<polygon fill="black" stroke="black" points="253.3,-216.99 256.8,-226.99 260.3,-216.99 253.3,-216.99"/>
</g>
<!-- RedisModule -->
<g id="node4" class="node">
<title>RedisModule</title>
<polygon fill="#8dd3c7" stroke="black" points="159.94,-198 156.94,-202 135.94,-202 132.94,-198 68.06,-198 68.06,-162 159.94,-162 159.94,-198"/>
<text text-anchor="middle" x="114" y="-175.8" font-family="Times,serif" font-size="14.00">RedisModule</text>
</g>
<!-- RedisModule&#45;&gt;AppModule -->
<g id="edge4" class="edge">
<title>RedisModule&#45;&gt;AppModule</title>
<path fill="none" stroke="black" d="M114,-198.11C114,-217.34 114,-245 114,-245 114,-245 229.29,-245 229.29,-245"/>
<polygon fill="black" stroke="black" points="229.29,-248.5 239.29,-245 229.29,-241.5 229.29,-248.5"/>
</g>
<!-- AdminStrategy -->
<g id="node6" class="node">
<title>AdminStrategy</title>
<ellipse fill="#fdb462" stroke="black" cx="400" cy="-104" rx="70.08" ry="18"/>
<text text-anchor="middle" x="400" y="-99.8" font-family="Times,serif" font-size="14.00">AdminStrategy</text>
</g>
<!-- AdminStrategy&#45;&gt;AuthModule -->
<g id="edge5" class="edge">
<title>AdminStrategy&#45;&gt;AuthModule</title>
<path fill="none" stroke="black" d="M354.87,-117.94C354.87,-117.94 354.87,-151.84 354.87,-151.84"/>
<polygon fill="black" stroke="black" points="351.37,-151.84 354.87,-161.84 358.37,-151.84 351.37,-151.84"/>
</g>
<!-- AuthService -->
<g id="node7" class="node">
<title>AuthService</title>
<ellipse fill="#fdb462" stroke="black" cx="253" cy="-104" rx="59.11" ry="18"/>
<text text-anchor="middle" x="253" y="-99.8" font-family="Times,serif" font-size="14.00">AuthService</text>
</g>
<!-- AuthService&#45;&gt;AuthModule -->
<g id="edge6" class="edge">
<title>AuthService&#45;&gt;AuthModule</title>
<path fill="none" stroke="black" d="M305.61,-112.42C305.61,-112.42 305.61,-151.73 305.61,-151.73"/>
<polygon fill="black" stroke="black" points="302.11,-151.73 305.61,-161.73 309.11,-151.73 302.11,-151.73"/>
</g>
<!-- MemberStrategy -->
<g id="node8" class="node">
<title>MemberStrategy</title>
<ellipse fill="#fdb462" stroke="black" cx="100" cy="-104" rx="75.86" ry="18"/>
<text text-anchor="middle" x="100" y="-99.8" font-family="Times,serif" font-size="14.00">MemberStrategy</text>
</g>
<!-- MemberStrategy&#45;&gt;AuthModule -->
<g id="edge7" class="edge">
<title>MemberStrategy&#45;&gt;AuthModule</title>
<path fill="none" stroke="black" d="M167.82,-112.43C167.82,-123.63 167.82,-142 167.82,-142 167.82,-142 298.92,-142 298.92,-142 298.92,-142 298.92,-151.89 298.92,-151.89"/>
<polygon fill="black" stroke="black" points="295.42,-151.89 298.92,-161.89 302.42,-151.89 295.42,-151.89"/>
</g>
<!-- GameService -->
<g id="node9" class="node">
<title>GameService</title>
<ellipse fill="#fdb462" stroke="black" cx="573" cy="-104" rx="63.1" ry="18"/>
<text text-anchor="middle" x="573" y="-99.8" font-family="Times,serif" font-size="14.00">GameService</text>
</g>
<!-- GameService&#45;&gt;GameModule -->
<g id="edge8" class="edge">
<title>GameService&#45;&gt;GameModule</title>
<path fill="none" stroke="black" d="M509.86,-104C493.44,-104 480.26,-104 480.26,-104 480.26,-104 480.26,-151.99 480.26,-151.99"/>
<polygon fill="black" stroke="black" points="476.76,-151.99 480.26,-161.99 483.76,-151.99 476.76,-151.99"/>
</g>
<!-- HeroSVCModule -->
<g id="node10" class="node">
<title>HeroSVCModule</title>
<polygon fill="#8dd3c7" stroke="black" points="790.26,-122 787.26,-126 766.26,-126 763.26,-122 675.74,-122 675.74,-86 790.26,-86 790.26,-122"/>
<text text-anchor="middle" x="733" y="-99.8" font-family="Times,serif" font-size="14.00">HeroSVCModule</text>
</g>
<!-- SVCAppModule -->
<g id="node11" class="node">
<title>SVCAppModule</title>
<polygon fill="#8dd3c7" stroke="black" points="788.38,-198 785.38,-202 764.38,-202 761.38,-198 677.62,-198 677.62,-162 788.38,-162 788.38,-198"/>
<text text-anchor="middle" x="733" y="-175.8" font-family="Times,serif" font-size="14.00">SVCAppModule</text>
</g>
<!-- HeroSVCModule&#45;&gt;SVCAppModule -->
<g id="edge9" class="edge">
<title>HeroSVCModule&#45;&gt;SVCAppModule</title>
<path fill="none" stroke="black" d="M733,-122.01C733,-122.01 733,-151.85 733,-151.85"/>
<polygon fill="black" stroke="black" points="729.5,-151.85 733,-161.85 736.5,-151.85 729.5,-151.85"/>
</g>
<!-- PointsService  -->
<g id="node12" class="node">
<title>PointsService </title>
<polygon fill="#fb8072" stroke="black" points="1048.49,-263 951.51,-263 951.51,-227 1048.49,-227 1048.49,-263"/>
<text text-anchor="middle" x="1000" y="-240.8" font-family="Times,serif" font-size="14.00">PointsService </text>
</g>
<!-- S3Service  -->
<g id="node13" class="node">
<title>S3Service </title>
<polygon fill="#fb8072" stroke="black" points="934.26,-263 857.74,-263 857.74,-227 934.26,-227 934.26,-263"/>
<text text-anchor="middle" x="896" y="-240.8" font-family="Times,serif" font-size="14.00">S3Service </text>
</g>
<!-- ThirdPartyModule -->
<g id="node14" class="node">
<title>ThirdPartyModule</title>
<polygon fill="#8dd3c7" stroke="black" points="987.2,-198 984.2,-202 963.2,-202 960.2,-198 866.8,-198 866.8,-162 987.2,-162 987.2,-198"/>
<text text-anchor="middle" x="927" y="-175.8" font-family="Times,serif" font-size="14.00">ThirdPartyModule</text>
</g>
<!-- ThirdPartyModule&#45;&gt;PointsService  -->
<g id="edge10" class="edge">
<title>ThirdPartyModule&#45;&gt;PointsService </title>
<path fill="none" stroke="black" stroke-dasharray="5,2" d="M969.43,-198.11C969.43,-198.11 969.43,-216.99 969.43,-216.99"/>
<polygon fill="black" stroke="black" points="965.93,-216.99 969.43,-226.99 972.93,-216.99 965.93,-216.99"/>
</g>
<!-- ThirdPartyModule&#45;&gt;S3Service  -->
<g id="edge11" class="edge">
<title>ThirdPartyModule&#45;&gt;S3Service </title>
<path fill="none" stroke="black" stroke-dasharray="5,2" d="M900.51,-198.11C900.51,-198.11 900.51,-216.99 900.51,-216.99"/>
<polygon fill="black" stroke="black" points="897.01,-216.99 900.51,-226.99 904.01,-216.99 897.01,-216.99"/>
</g>
<!-- PointsService -->
<g id="node15" class="node">
<title>PointsService</title>
<ellipse fill="#fdb462" stroke="black" cx="1012" cy="-104" rx="64.28" ry="18"/>
<text text-anchor="middle" x="1012" y="-99.8" font-family="Times,serif" font-size="14.00">PointsService</text>
</g>
<!-- PointsService&#45;&gt;ThirdPartyModule -->
<g id="edge12" class="edge">
<title>PointsService&#45;&gt;ThirdPartyModule</title>
<path fill="none" stroke="black" d="M967.48,-117.24C967.48,-117.24 967.48,-151.79 967.48,-151.79"/>
<polygon fill="black" stroke="black" points="963.98,-151.79 967.48,-161.79 970.98,-151.79 963.98,-151.79"/>
</g>
<!-- S3Service -->
<g id="node16" class="node">
<title>S3Service</title>
<ellipse fill="#fdb462" stroke="black" cx="880" cy="-104" rx="50.38" ry="18"/>
<text text-anchor="middle" x="880" y="-99.8" font-family="Times,serif" font-size="14.00">S3Service</text>
</g>
<!-- S3Service&#45;&gt;ThirdPartyModule -->
<g id="edge13" class="edge">
<title>S3Service&#45;&gt;ThirdPartyModule</title>
<path fill="none" stroke="black" d="M898.54,-120.87C898.54,-120.87 898.54,-151.85 898.54,-151.85"/>
<polygon fill="black" stroke="black" points="895.04,-151.85 898.54,-161.85 902.04,-151.85 895.04,-151.85"/>
</g>
</g>
</svg>
