<?xml version="1.0" encoding="UTF-8" standalone="no"?>
<!DOCTYPE svg PUBLIC "-//W3C//DTD SVG 1.1//EN"
 "http://www.w3.org/Graphics/SVG/1.1/DTD/svg11.dtd">
<!-- Generated by graphviz version 2.47.0 (20210316.0004)
 -->
<!-- Title: dependencies Pages: 1 -->
<svg width="1200pt" height="295pt"
 viewBox="0.00 0.00 1200.00 295.00" xmlns="http://www.w3.org/2000/svg" xmlns:xlink="http://www.w3.org/1999/xlink">
<g id="graph0" class="graph" transform="scale(1 1) rotate(0) translate(4 291)">
<title>dependencies</title>
<polygon fill="white" stroke="transparent" points="-4,4 -4,-291 1196,-291 1196,4 -4,4"/>
<text text-anchor="start" x="575.01" y="-42.4" font-family="sans-serif" font-weight="bold" font-size="14.00">Legend</text>
<polygon fill="#ffffb3" stroke="transparent" points="362,-10 362,-30 382,-30 382,-10 362,-10"/>
<text text-anchor="start" x="385.63" y="-15.4" font-family="sans-serif" font-size="14.00"> &#160;Declarations</text>
<polygon fill="#8dd3c7" stroke="transparent" points="475,-10 475,-30 495,-30 495,-10 475,-10"/>
<text text-anchor="start" x="498.73" y="-15.4" font-family="sans-serif" font-size="14.00"> &#160;Module</text>
<polygon fill="#80b1d3" stroke="transparent" points="561,-10 561,-30 581,-30 581,-10 561,-10"/>
<text text-anchor="start" x="584.78" y="-15.4" font-family="sans-serif" font-size="14.00"> &#160;Bootstrap</text>
<polygon fill="#fdb462" stroke="transparent" points="658,-10 658,-30 678,-30 678,-10 658,-10"/>
<text text-anchor="start" x="681.67" y="-15.4" font-family="sans-serif" font-size="14.00"> &#160;Providers</text>
<polygon fill="#fb8072" stroke="transparent" points="754,-10 754,-30 774,-30 774,-10 754,-10"/>
<text text-anchor="start" x="777.73" y="-15.4" font-family="sans-serif" font-size="14.00"> &#160;Exports</text>
<g id="clust1" class="cluster">
<title>cluster_AppModule</title>
<polygon fill="none" stroke="black" stroke-dasharray="1,5" points="52,-146 52,-271 861,-271 861,-146 52,-146"/>
</g>
<g id="clust3" class="cluster">
<title>cluster_AppModule_imports</title>
<polygon fill="none" stroke="black" points="60,-154 60,-206 853,-206 853,-154 60,-154"/>
</g>
<g id="clust7" class="cluster">
<title>cluster_AuthModule</title>
<polygon fill="none" stroke="black" stroke-dasharray="1,5" points="8,-70 8,-138 486,-138 486,-70 8,-70"/>
</g>
<g id="clust12" class="cluster">
<title>cluster_AuthModule_providers</title>
<polygon fill="none" stroke="black" points="16,-78 16,-130 478,-130 478,-78 16,-78"/>
</g>
<g id="clust19" class="cluster">
<title>cluster_CoreModule</title>
<polygon fill="none" stroke="black" stroke-dasharray="1,5" points="494,-70 494,-138 732,-138 732,-70 494,-70"/>
</g>
<g id="clust21" class="cluster">
<title>cluster_CoreModule_imports</title>
<polygon fill="none" stroke="black" points="502,-78 502,-130 724,-130 724,-78 502,-78"/>
</g>
<g id="clust31" class="cluster">
<title>cluster_GameModule</title>
<polygon fill="none" stroke="black" stroke-dasharray="1,5" points="740,-70 740,-138 898,-138 898,-70 740,-70"/>
</g>
<g id="clust36" class="cluster">
<title>cluster_GameModule_providers</title>
<polygon fill="none" stroke="black" points="748,-78 748,-130 890,-130 890,-78 748,-78"/>
</g>
<g id="clust73" class="cluster">
<title>cluster_ThirdPartyModule</title>
<polygon fill="none" stroke="black" stroke-dasharray="1,5" points="906,-70 906,-279 1184,-279 1184,-70 906,-70"/>
</g>
<g id="clust76" class="cluster">
<title>cluster_ThirdPartyModule_exports</title>
<polygon fill="none" stroke="black" points="942,-219 942,-271 1148,-271 1148,-219 942,-219"/>
</g>
<g id="clust78" class="cluster">
<title>cluster_ThirdPartyModule_providers</title>
<polygon fill="none" stroke="black" points="914,-78 914,-130 1176,-130 1176,-78 914,-78"/>
</g>
<!-- AuthModule -->
<g id="node1" class="node">
<title>AuthModule</title>
<polygon fill="#8dd3c7" stroke="black" points="494.55,-198 491.55,-202 470.55,-202 467.55,-198 407.45,-198 407.45,-162 494.55,-162 494.55,-198"/>
<text text-anchor="middle" x="451" y="-175.8" font-family="Times,serif" font-size="14.00">AuthModule</text>
</g>
<!-- AppModule -->
<g id="node8" class="node">
<title>AppModule</title>
<polygon fill="#8dd3c7" stroke="black" points="492.66,-263 489.66,-267 468.66,-267 465.66,-263 409.34,-263 409.34,-227 492.66,-227 492.66,-263"/>
<text text-anchor="middle" x="451" y="-240.8" font-family="Times,serif" font-size="14.00">AppModule</text>
</g>
<!-- AuthModule&#45;&gt;AppModule -->
<g id="edge1" class="edge">
<title>AuthModule&#45;&gt;AppModule</title>
<path fill="none" stroke="black" d="M451,-198.11C451,-198.11 451,-216.99 451,-216.99"/>
<polygon fill="black" stroke="black" points="447.5,-216.99 451,-226.99 454.5,-216.99 447.5,-216.99"/>
</g>
<!-- CampaignModule -->
<g id="node2" class="node">
<title>CampaignModule</title>
<polygon fill="#8dd3c7" stroke="black" points="734.6,-198 731.6,-202 710.6,-202 707.6,-198 617.4,-198 617.4,-162 734.6,-162 734.6,-198"/>
<text text-anchor="middle" x="676" y="-175.8" font-family="Times,serif" font-size="14.00">CampaignModule</text>
</g>
<!-- CampaignModule&#45;&gt;AppModule -->
<g id="edge2" class="edge">
<title>CampaignModule&#45;&gt;AppModule</title>
<path fill="none" stroke="black" d="M676,-198.11C676,-217.34 676,-245 676,-245 676,-245 502.79,-245 502.79,-245"/>
<polygon fill="black" stroke="black" points="502.79,-241.5 492.79,-245 502.79,-248.5 502.79,-241.5"/>
</g>
<!-- CoreModule -->
<g id="node3" class="node">
<title>CoreModule</title>
<polygon fill="#8dd3c7" stroke="black" points="599.26,-198 596.26,-202 575.26,-202 572.26,-198 512.74,-198 512.74,-162 599.26,-162 599.26,-198"/>
<text text-anchor="middle" x="556" y="-175.8" font-family="Times,serif" font-size="14.00">CoreModule</text>
</g>
<!-- CoreModule&#45;&gt;AppModule -->
<g id="edge3" class="edge">
<title>CoreModule&#45;&gt;AppModule</title>
<path fill="none" stroke="black" d="M556,-198.03C556,-214.4 556,-236 556,-236 556,-236 502.8,-236 502.8,-236"/>
<polygon fill="black" stroke="black" points="502.8,-232.5 492.8,-236 502.8,-239.5 502.8,-232.5"/>
</g>
<!-- GameModule -->
<g id="node4" class="node">
<title>GameModule</title>
<polygon fill="#8dd3c7" stroke="black" points="845.48,-198 842.48,-202 821.48,-202 818.48,-198 752.52,-198 752.52,-162 845.48,-162 845.48,-198"/>
<text text-anchor="middle" x="799" y="-175.8" font-family="Times,serif" font-size="14.00">GameModule</text>
</g>
<!-- GameModule&#45;&gt;AppModule -->
<g id="edge4" class="edge">
<title>GameModule&#45;&gt;AppModule</title>
<path fill="none" stroke="black" d="M799,-198.29C799,-220.21 799,-254 799,-254 799,-254 502.98,-254 502.98,-254"/>
<polygon fill="black" stroke="black" points="502.98,-250.5 492.98,-254 502.98,-257.5 502.98,-250.5"/>
</g>
<!-- PlayerModule -->
<g id="node5" class="node">
<title>PlayerModule</title>
<polygon fill="#8dd3c7" stroke="black" points="389.81,-198 386.81,-202 365.81,-202 362.81,-198 294.19,-198 294.19,-162 389.81,-162 389.81,-198"/>
<text text-anchor="middle" x="342" y="-175.8" font-family="Times,serif" font-size="14.00">PlayerModule</text>
</g>
<!-- PlayerModule&#45;&gt;AppModule -->
<g id="edge5" class="edge">
<title>PlayerModule&#45;&gt;AppModule</title>
<path fill="none" stroke="black" d="M342,-198.03C342,-214.4 342,-236 342,-236 342,-236 399.17,-236 399.17,-236"/>
<polygon fill="black" stroke="black" points="399.17,-239.5 409.17,-236 399.17,-232.5 399.17,-239.5"/>
</g>
<!-- QuizModule -->
<g id="node6" class="node">
<title>QuizModule</title>
<polygon fill="#8dd3c7" stroke="black" points="276.26,-198 273.26,-202 252.26,-202 249.26,-198 189.74,-198 189.74,-162 276.26,-162 276.26,-198"/>
<text text-anchor="middle" x="233" y="-175.8" font-family="Times,serif" font-size="14.00">QuizModule</text>
</g>
<!-- QuizModule&#45;&gt;AppModule -->
<g id="edge6" class="edge">
<title>QuizModule&#45;&gt;AppModule</title>
<path fill="none" stroke="black" d="M233,-198.11C233,-217.34 233,-245 233,-245 233,-245 399.23,-245 399.23,-245"/>
<polygon fill="black" stroke="black" points="399.23,-248.5 409.23,-245 399.23,-241.5 399.23,-248.5"/>
</g>
<!-- RewardModule -->
<g id="node7" class="node">
<title>RewardModule</title>
<polygon fill="#8dd3c7" stroke="black" points="171.58,-198 168.58,-202 147.58,-202 144.58,-198 68.42,-198 68.42,-162 171.58,-162 171.58,-198"/>
<text text-anchor="middle" x="120" y="-175.8" font-family="Times,serif" font-size="14.00">RewardModule</text>
</g>
<!-- RewardModule&#45;&gt;AppModule -->
<g id="edge7" class="edge">
<title>RewardModule&#45;&gt;AppModule</title>
<path fill="none" stroke="black" d="M120,-198.29C120,-220.21 120,-254 120,-254 120,-254 399.08,-254 399.08,-254"/>
<polygon fill="black" stroke="black" points="399.08,-257.5 409.08,-254 399.08,-250.5 399.08,-257.5"/>
</g>
<!-- AdminStrategy -->
<g id="node9" class="node">
<title>AdminStrategy</title>
<ellipse fill="#fdb462" stroke="black" cx="400" cy="-104" rx="70.08" ry="18"/>
<text text-anchor="middle" x="400" y="-99.8" font-family="Times,serif" font-size="14.00">AdminStrategy</text>
</g>
<!-- AdminStrategy&#45;&gt;AuthModule -->
<g id="edge8" class="edge">
<title>AdminStrategy&#45;&gt;AuthModule</title>
<path fill="none" stroke="black" d="M454.34,-115.54C454.34,-115.54 454.34,-151.83 454.34,-151.83"/>
<polygon fill="black" stroke="black" points="450.84,-151.83 454.34,-161.83 457.84,-151.83 450.84,-151.83"/>
</g>
<!-- AuthService -->
<g id="node10" class="node">
<title>AuthService</title>
<ellipse fill="#fdb462" stroke="black" cx="253" cy="-104" rx="59.11" ry="18"/>
<text text-anchor="middle" x="253" y="-99.8" font-family="Times,serif" font-size="14.00">AuthService</text>
</g>
<!-- AuthService&#45;&gt;AuthModule -->
<g id="edge9" class="edge">
<title>AuthService&#45;&gt;AuthModule</title>
<path fill="none" stroke="black" d="M303.32,-113.77C303.32,-123.19 303.32,-136 303.32,-136 303.32,-136 438.63,-136 438.63,-136 438.63,-136 438.63,-151.85 438.63,-151.85"/>
<polygon fill="black" stroke="black" points="435.13,-151.85 438.63,-161.85 442.13,-151.85 435.13,-151.85"/>
</g>
<!-- MemberStrategy -->
<g id="node11" class="node">
<title>MemberStrategy</title>
<ellipse fill="#fdb462" stroke="black" cx="100" cy="-104" rx="75.86" ry="18"/>
<text text-anchor="middle" x="100" y="-99.8" font-family="Times,serif" font-size="14.00">MemberStrategy</text>
</g>
<!-- MemberStrategy&#45;&gt;AuthModule -->
<g id="edge10" class="edge">
<title>MemberStrategy&#45;&gt;AuthModule</title>
<path fill="none" stroke="black" d="M120,-121.53C120,-134.16 120,-149 120,-149 120,-149 422.93,-149 422.93,-149 422.93,-149 422.93,-151.97 422.93,-151.97"/>
<polygon fill="black" stroke="black" points="419.43,-151.97 422.93,-161.97 426.43,-151.97 419.43,-151.97"/>
</g>
<!-- HealthModule -->
<g id="node12" class="node">
<title>HealthModule</title>
<polygon fill="#8dd3c7" stroke="black" points="716.37,-122 713.37,-126 692.37,-126 689.37,-122 619.63,-122 619.63,-86 716.37,-86 716.37,-122"/>
<text text-anchor="middle" x="668" y="-99.8" font-family="Times,serif" font-size="14.00">HealthModule</text>
</g>
<!-- HealthModule&#45;&gt;CoreModule -->
<g id="edge11" class="edge">
<title>HealthModule&#45;&gt;CoreModule</title>
<path fill="none" stroke="black" d="M619.49,-104C613.59,-104 609.58,-104 609.58,-104 609.58,-104 609.58,-180 609.58,-180 609.58,-180 608.6,-180 608.6,-180"/>
<polygon fill="black" stroke="black" points="609.76,-176.5 599.76,-180 609.76,-183.5 609.76,-176.5"/>
</g>
<!-- RedisModule -->
<g id="node13" class="node">
<title>RedisModule</title>
<polygon fill="#8dd3c7" stroke="black" points="601.94,-122 598.94,-126 577.94,-126 574.94,-122 510.06,-122 510.06,-86 601.94,-86 601.94,-122"/>
<text text-anchor="middle" x="556" y="-99.8" font-family="Times,serif" font-size="14.00">RedisModule</text>
</g>
<!-- RedisModule&#45;&gt;CoreModule -->
<g id="edge12" class="edge">
<title>RedisModule&#45;&gt;CoreModule</title>
<path fill="none" stroke="black" d="M570.46,-122.01C570.46,-122.01 570.46,-151.85 570.46,-151.85"/>
<polygon fill="black" stroke="black" points="566.96,-151.85 570.46,-161.85 573.96,-151.85 566.96,-151.85"/>
</g>
<!-- RedisModule&#45;&gt;CoreModule -->
<g id="edge13" class="edge">
<title>RedisModule&#45;&gt;CoreModule</title>
<path fill="none" stroke="black" d="M541.54,-122.01C541.54,-122.01 541.54,-151.85 541.54,-151.85"/>
<polygon fill="black" stroke="black" points="538.04,-151.85 541.54,-161.85 545.04,-151.85 538.04,-151.85"/>
</g>
<!-- GameService -->
<g id="node14" class="node">
<title>GameService</title>
<ellipse fill="#fdb462" stroke="black" cx="819" cy="-104" rx="63.1" ry="18"/>
<text text-anchor="middle" x="819" y="-99.8" font-family="Times,serif" font-size="14.00">GameService</text>
</g>
<!-- GameService&#45;&gt;GameModule -->
<g id="edge14" class="edge">
<title>GameService&#45;&gt;GameModule</title>
<path fill="none" stroke="black" d="M800.72,-121.25C800.72,-121.25 800.72,-151.76 800.72,-151.76"/>
<polygon fill="black" stroke="black" points="797.22,-151.76 800.72,-161.76 804.22,-151.76 797.22,-151.76"/>
</g>
<!-- PointsService  -->
<g id="node15" class="node">
<title>PointsService </title>
<polygon fill="#fb8072" stroke="black" points="1140.49,-263 1043.51,-263 1043.51,-227 1140.49,-227 1140.49,-263"/>
<text text-anchor="middle" x="1092" y="-240.8" font-family="Times,serif" font-size="14.00">PointsService </text>
</g>
<!-- S3Service  -->
<g id="node16" class="node">
<title>S3Service </title>
<polygon fill="#fb8072" stroke="black" points="1026.26,-263 949.74,-263 949.74,-227 1026.26,-227 1026.26,-263"/>
<text text-anchor="middle" x="988" y="-240.8" font-family="Times,serif" font-size="14.00">S3Service </text>
</g>
<!-- ThirdPartyModule -->
<g id="node17" class="node">
<title>ThirdPartyModule</title>
<polygon fill="#8dd3c7" stroke="black" points="1079.2,-198 1076.2,-202 1055.2,-202 1052.2,-198 958.8,-198 958.8,-162 1079.2,-162 1079.2,-198"/>
<text text-anchor="middle" x="1019" y="-175.8" font-family="Times,serif" font-size="14.00">ThirdPartyModule</text>
</g>
<!-- ThirdPartyModule&#45;&gt;PointsService  -->
<g id="edge15" class="edge">
<title>ThirdPartyModule&#45;&gt;PointsService </title>
<path fill="none" stroke="black" stroke-dasharray="5,2" d="M1061.43,-198.11C1061.43,-198.11 1061.43,-216.99 1061.43,-216.99"/>
<polygon fill="black" stroke="black" points="1057.93,-216.99 1061.43,-226.99 1064.93,-216.99 1057.93,-216.99"/>
</g>
<!-- ThirdPartyModule&#45;&gt;S3Service  -->
<g id="edge16" class="edge">
<title>ThirdPartyModule&#45;&gt;S3Service </title>
<path fill="none" stroke="black" stroke-dasharray="5,2" d="M992.51,-198.11C992.51,-198.11 992.51,-216.99 992.51,-216.99"/>
<polygon fill="black" stroke="black" points="989.01,-216.99 992.51,-226.99 996.01,-216.99 989.01,-216.99"/>
</g>
<!-- PointsService -->
<g id="node18" class="node">
<title>PointsService</title>
<ellipse fill="#fdb462" stroke="black" cx="1104" cy="-104" rx="64.28" ry="18"/>
<text text-anchor="middle" x="1104" y="-99.8" font-family="Times,serif" font-size="14.00">PointsService</text>
</g>
<!-- PointsService&#45;&gt;ThirdPartyModule -->
<g id="edge17" class="edge">
<title>PointsService&#45;&gt;ThirdPartyModule</title>
<path fill="none" stroke="black" d="M1059.48,-117.24C1059.48,-117.24 1059.48,-151.79 1059.48,-151.79"/>
<polygon fill="black" stroke="black" points="1055.98,-151.79 1059.48,-161.79 1062.98,-151.79 1055.98,-151.79"/>
</g>
<!-- S3Service -->
<g id="node19" class="node">
<title>S3Service</title>
<ellipse fill="#fdb462" stroke="black" cx="972" cy="-104" rx="50.38" ry="18"/>
<text text-anchor="middle" x="972" y="-99.8" font-family="Times,serif" font-size="14.00">S3Service</text>
</g>
<!-- S3Service&#45;&gt;ThirdPartyModule -->
<g id="edge18" class="edge">
<title>S3Service&#45;&gt;ThirdPartyModule</title>
<path fill="none" stroke="black" d="M990.54,-120.87C990.54,-120.87 990.54,-151.85 990.54,-151.85"/>
<polygon fill="black" stroke="black" points="987.04,-151.85 990.54,-161.85 994.04,-151.85 987.04,-151.85"/>
</g>
</g>
</svg>
